<?xml version="1.0" standalone="no"?>
<!DOCTYPE svg PUBLIC "-//W3C//DTD SVG 20010904//EN"
 "http://www.w3.org/TR/2001/REC-SVG-20010904/DTD/svg10.dtd">
<svg version="1.0" xmlns="http://www.w3.org/2000/svg"
 width="180.000000pt" height="180.000000pt" viewBox="0 0 180.000000 180.000000"
 preserveAspectRatio="xMidYMid meet">

<g transform="translate(0.000000,180.000000) scale(0.100000,-0.100000)"
fill="#000000" stroke="none">
<path d="M320 1789 c-118 -23 -228 -109 -276 -213 -43 -93 -45 -136 -42 -713
3 -548 3 -548 26 -606 44 -109 120 -185 229 -229 l58 -23 585 0 585 0 58 23
c109 44 185 120 229 229 l23 58 0 585 0 585 -23 58 c-44 109 -120 185 -229
229 l-58 23 -560 2 c-308 1 -580 -3 -605 -8z m644 -193 c18 -8 51 -35 72 -60
23 -27 47 -46 59 -46 46 0 167 -70 237 -138 175 -168 235 -309 225 -527 -8
-177 -66 -313 -186 -435 -66 -66 -93 -86 -182 -128 -148 -72 -279 -90 -429
-58 -240 51 -464 268 -506 489 -31 162 -10 349 53 471 72 139 245 284 391 327
29 8 48 22 60 42 38 65 133 94 206 63z"/>
<path d="M662 1310 c-186 -93 -285 -277 -268 -494 10 -123 11 -130 54 -213 27
-55 44 -75 108 -133 61 -56 94 -75 168 -99 129 -41 253 -38 382 10 167 63 298
248 311 439 14 203 -105 407 -288 495 -76 36 -99 42 -99 25 0 -20 -87 -60
-129 -60 -49 0 -107 24 -124 52 -16 25 -24 24 -115 -22z m315 -252 c53 -23 92
-60 118 -111 45 -91 26 -178 -55 -250 -70 -64 -118 -77 -194 -56 -45 13 -127
85 -150 134 -45 94 6 224 106 274 49 24 131 28 175 9z"/>
</g>
</svg>
