<?xml version="1.0" encoding="utf-8"?>
<!-- Generator: Adobe Illustrator 16.0.3, SVG Export Plug-In . SVG Version: 6.00 Build 0)  -->
<!DOCTYPE svg PUBLIC "-//W3C//DTD SVG 1.1//EN" "http://www.w3.org/Graphics/SVG/1.1/DTD/svg11.dtd">
<svg version="1.1" id="Capa_1" xmlns="http://www.w3.org/2000/svg" xmlns:xlink="http://www.w3.org/1999/xlink" x="0px" y="0px"
	 width="1080px" height="1080px" viewBox="0 0 1080 1080" enable-background="new 0 0 1080 1080" xml:space="preserve">
<g>
	<path d="M780,0H300C134.314,0,0,134.314,0,300v480c0,165.686,134.313,300,300,300h480c165.686,0,300-134.314,300-300V300
		C1080,134.314,945.686,0,780,0z M964.615,563.653c0,57.303-11.231,112.915-33.387,165.293
		c-20.051,47.408-48.209,90.277-83.771,127.571c-2.369,2.486-4.772,4.947-7.21,7.385c-36.545,36.545-78.736,65.731-125.533,86.861
		c-3.12,1.408-6.261,2.781-9.422,4.118c-4.909,2.077-9.849,4.059-14.814,5.942c-48.005,18.22-98.547,27.445-150.479,27.445
		c-51.932,0-102.474-9.227-150.479-27.445c-4.967-1.885-9.904-3.865-14.815-5.942c-3.161-1.337-6.301-2.71-9.421-4.118
		c-46.797-21.13-88.988-50.316-125.533-86.861c-2.438-2.438-4.841-4.897-7.21-7.385c-35.563-37.294-63.72-80.163-83.771-127.571
		c-22.154-52.378-33.387-107.99-33.387-165.293c0,0,0,0,0-0.001l0,0c0-37.604,4.837-74.48,14.424-110.193
		c0.457-1.701,0.924-3.397,1.402-5.094c0.956-3.391,1.955-6.771,2.997-10.139c4.169-13.475,9.023-26.771,14.563-39.865
		c21.389-50.568,51.998-95.974,90.979-134.956c38.98-38.981,84.388-69.592,134.954-90.981
		c25.811-10.917,52.405-19.176,79.602-24.751c14.485-32.939,47.399-55.944,85.692-55.944s71.207,23.004,85.693,55.944
		c27.195,5.576,53.791,13.835,79.601,24.751c50.567,21.389,95.975,52,134.955,90.981c38.981,38.982,69.591,84.387,90.979,134.956
		c5.539,13.094,10.395,26.391,14.563,39.865c1.042,3.368,2.041,6.749,2.997,10.139c0.479,1.695,0.945,3.393,1.402,5.094
		C959.778,489.172,964.615,526.048,964.615,563.653L964.615,563.653L964.615,563.653z"/>
	<path d="M115.385,563.652C115.385,563.653,115.385,563.653,115.385,563.652c0,57.304,11.232,112.916,33.387,165.294
		c20.051,47.407,48.208,90.277,83.771,127.571c-35.563-37.295-63.72-80.164-83.771-127.572
		C126.617,676.568,115.385,620.955,115.385,563.652z"/>
	<path d="M115.385,563.652C115.385,563.653,115.385,563.653,115.385,563.652c0,57.304,11.232,112.916,33.387,165.294
		c20.051,47.407,48.208,90.277,83.771,127.571c-35.563-37.295-63.72-80.164-83.771-127.572
		C126.617,676.568,115.385,620.955,115.385,563.652z"/>
	<path d="M847.459,856.519c35.561-37.294,63.719-80.163,83.77-127.571c22.154-52.378,33.387-107.99,33.387-165.293c0,0,0,0,0-0.001
		c0,57.303-11.231,112.916-33.387,165.293C911.178,776.354,883.02,819.224,847.459,856.519z"/>
	<path d="M847.459,856.519c35.561-37.294,63.719-80.163,83.77-127.571c22.154-52.378,33.387-107.99,33.387-165.293c0,0,0,0,0-0.001
		c0,57.303-11.231,112.916-33.387,165.293C911.178,776.354,883.02,819.224,847.459,856.519z"/>
	<path d="M840.248,863.902c-36.545,36.544-78.736,65.731-125.533,86.861C761.512,929.635,803.703,900.447,840.248,863.902z"/>
	<path d="M840.248,863.902c-36.545,36.544-78.736,65.731-125.533,86.861C761.512,929.635,803.703,900.447,840.248,863.902z"/>
	<path d="M365.284,950.765c-46.797-21.13-88.988-50.317-125.533-86.861C276.296,900.447,318.488,929.635,365.284,950.765z"/>
	<path d="M365.284,950.765c-46.797-21.13-88.988-50.317-125.533-86.861C276.296,900.447,318.488,929.635,365.284,950.765z"/>
	<path d="M389.521,960.825c48.005,18.22,98.547,27.444,150.479,27.444c51.932,0,102.474-9.226,150.479-27.444
		C642.474,979.045,591.932,988.27,540,988.27C488.068,988.27,437.526,979.045,389.521,960.825z"/>
	<path d="M389.521,960.825c48.005,18.22,98.547,27.444,150.479,27.444c51.932,0,102.474-9.226,150.479-27.444
		C642.474,979.045,591.932,988.27,540,988.27C488.068,988.27,437.526,979.045,389.521,960.825z"/>
	<path d="M747.707,301.498c-7.188-5.706-14.614-11.124-22.264-16.235c-5.736-3.833-11.597-7.494-17.575-10.975
		c-27.896-16.245-58.344-28.572-90.58-36.224C600.436,262.706,572.107,278.88,540,278.88c-32.107,0-60.436-16.174-77.289-40.816
		c-32.236,7.651-62.684,19.979-90.58,36.224c-5.979,3.481-11.84,7.142-17.575,10.975c-7.648,5.111-15.075,10.529-22.265,16.235
		c-77.271,61.343-126.906,156.058-126.906,262.155c0,184.51,150.106,334.616,334.614,334.616
		c184.509,0,334.615-150.106,334.615-334.616C874.615,457.556,824.979,362.84,747.707,301.498z M675.307,540
		c0,42.034-19.168,79.591-49.239,104.409c-2.506,2.066-5.088,4.048-7.74,5.934c-1.769,1.258-3.567,2.475-5.397,3.647
		s-3.69,2.304-5.579,3.39s-3.807,2.128-5.752,3.124c-5.834,2.988-11.914,5.565-18.201,7.693c-2.096,0.709-4.215,1.368-6.354,1.977
		c-11.772,3.343-24.198,5.133-37.042,5.133c-12.845,0-25.271-1.79-37.042-5.133c-2.141-0.607-4.26-1.268-6.354-1.977
		c-6.287-2.128-12.367-4.705-18.201-7.693c-1.944-0.996-3.862-2.038-5.752-3.124c-1.889-1.086-3.749-2.217-5.579-3.39
		c-1.83-1.174-3.63-2.391-5.397-3.647c-2.652-1.886-5.234-3.866-7.74-5.934c-30.071-24.817-49.239-62.375-49.239-104.409l0,0l0,0
		c0-46.704,23.664-87.882,59.656-112.198c1.799-1.216,3.629-2.389,5.489-3.52c1.859-1.13,3.749-2.216,5.666-3.258
		s3.861-2.038,5.835-2.988c3.942-1.9,7.992-3.615,12.137-5.132c2.072-0.76,4.169-1.469,6.287-2.127
		c12.711-3.953,26.225-6.083,40.236-6.083c14.011,0,27.524,2.13,40.235,6.083c2.118,0.658,4.215,1.369,6.287,2.127
		c4.146,1.518,8.193,3.231,12.137,5.132c1.974,0.95,3.918,1.947,5.836,2.988c1.916,1.041,3.806,2.128,5.666,3.258
		c1.859,1.13,3.689,2.304,5.488,3.52C651.643,452.118,675.307,493.296,675.307,540L675.307,540L675.307,540z"/>
	<path d="M475.505,421.024c1.917-1.042,3.861-2.038,5.835-2.988C479.366,418.986,477.422,419.983,475.505,421.024z"/>
	<path d="M475.505,421.024c1.917-1.042,3.861-2.038,5.835-2.988C479.366,418.986,477.422,419.983,475.505,421.024z"/>
	<path d="M493.477,412.904c2.072-0.76,4.169-1.469,6.287-2.127C497.646,411.436,495.549,412.145,493.477,412.904z"/>
	<path d="M493.477,412.904c2.072-0.76,4.169-1.469,6.287-2.127C497.646,411.436,495.549,412.145,493.477,412.904z"/>
	<path d="M580.236,410.776c2.118,0.658,4.215,1.368,6.287,2.127C584.45,412.145,582.354,411.436,580.236,410.776z"/>
	<path d="M580.236,410.776c2.118,0.658,4.215,1.368,6.287,2.127C584.45,412.145,582.354,411.436,580.236,410.776z"/>
	<path d="M469.839,424.282c1.859-1.13,3.749-2.216,5.666-3.258C473.588,422.066,471.698,423.152,469.839,424.282z"/>
	<path d="M469.839,424.282c1.859-1.13,3.749-2.216,5.666-3.258C473.588,422.066,471.698,423.152,469.839,424.282z"/>
	<path d="M615.65,427.802c35.992,24.316,59.656,65.494,59.656,112.198l0,0C675.307,493.296,651.643,452.118,615.65,427.802z"/>
	<path d="M615.65,427.802c35.992,24.316,59.656,65.494,59.656,112.198l0,0C675.307,493.296,651.643,452.118,615.65,427.802z"/>
	<path d="M464.35,427.802c1.799-1.216,3.629-2.389,5.489-3.52C467.979,425.413,466.148,426.586,464.35,427.802z"/>
	<path d="M464.35,427.802c1.799-1.216,3.629-2.389,5.489-3.52C467.979,425.413,466.148,426.586,464.35,427.802z"/>
	<path d="M598.659,418.036c1.974,0.95,3.918,1.947,5.835,2.988C602.577,419.983,600.633,418.986,598.659,418.036z"/>
	<path d="M598.659,418.036c1.974,0.95,3.918,1.947,5.835,2.988C602.577,419.983,600.633,418.986,598.659,418.036z"/>
	<path d="M610.16,424.282c1.86,1.13,3.69,2.304,5.489,3.52C613.852,426.586,612.021,425.413,610.16,424.282z"/>
	<path d="M610.16,424.282c1.86,1.13,3.69,2.304,5.489,3.52C613.852,426.586,612.021,425.413,610.16,424.282z"/>
	<path d="M464.35,427.802c-35.992,24.316-59.656,65.494-59.656,112.198l0,0C404.693,493.296,428.357,452.118,464.35,427.802z"/>
	<path d="M464.35,427.802c-35.992,24.316-59.656,65.494-59.656,112.198l0,0C404.693,493.296,428.357,452.118,464.35,427.802z"/>
	<path d="M604.494,421.024c1.917,1.042,3.807,2.128,5.666,3.258C608.301,423.152,606.411,422.066,604.494,421.024z"/>
	<path d="M604.494,421.024c1.917,1.042,3.807,2.128,5.666,3.258C608.301,423.152,606.411,422.066,604.494,421.024z"/>
	<path d="M707.868,274.288c5.979,3.481,11.839,7.142,17.575,10.975C719.707,281.43,713.848,277.769,707.868,274.288z"/>
	<path d="M707.868,274.288c5.979,3.481,11.839,7.142,17.575,10.975C719.707,281.43,713.848,277.769,707.868,274.288z"/>
	<path d="M354.556,285.263c5.735-3.833,11.597-7.494,17.575-10.975C366.152,277.769,360.291,281.43,354.556,285.263z"/>
	<path d="M354.556,285.263c5.735-3.833,11.597-7.494,17.575-10.975C366.152,277.769,360.291,281.43,354.556,285.263z"/>
	<path d="M332.291,301.498c-77.271,61.343-126.906,156.058-126.906,262.155l0,0C205.385,457.556,255.021,362.84,332.291,301.498z"/>
	<path d="M332.291,301.498c-77.271,61.343-126.906,156.058-126.906,262.155l0,0C205.385,457.556,255.021,362.84,332.291,301.498z"/>
	<path d="M747.707,301.498c77.271,61.343,126.907,156.058,126.907,262.155l0,0C874.615,457.556,824.979,362.84,747.707,301.498z"/>
	<path d="M747.707,301.498c77.271,61.343,126.907,156.058,126.907,262.155l0,0C874.615,457.556,824.979,362.84,747.707,301.498z"/>
	<path d="M618.326,650.343c-1.769,1.258-3.567,2.475-5.397,3.647C614.759,652.816,616.559,651.601,618.326,650.343z"/>
	<path d="M612.929,653.99c-1.83,1.173-3.69,2.304-5.579,3.39C609.238,656.294,611.099,655.163,612.929,653.99z"/>
	<path d="M607.35,657.38c-1.889,1.086-3.807,2.128-5.752,3.124C603.543,659.508,605.461,658.466,607.35,657.38z"/>
	<path d="M404.693,540L404.693,540c0,42.034,19.168,79.592,49.239,104.409C423.861,619.592,404.693,582.034,404.693,540z"/>
	<path d="M472.65,657.38c-1.889-1.086-3.749-2.217-5.579-3.39C468.901,655.163,470.762,656.294,472.65,657.38z"/>
	<path d="M467.071,653.99c-1.83-1.174-3.63-2.391-5.397-3.647C463.441,651.601,465.24,652.816,467.071,653.99z"/>
	<path d="M626.067,644.409c30.071-24.817,49.239-62.375,49.239-104.409l0,0C675.307,582.034,656.139,619.592,626.067,644.409z"/>
	<path d="M502.957,670.174c-2.14-0.607-4.259-1.268-6.354-1.977C498.698,668.906,500.818,669.565,502.957,670.174z"/>
	<path d="M478.402,660.504c-1.945-0.996-3.863-2.038-5.752-3.124C474.538,658.466,476.456,659.508,478.402,660.504z"/>
	<path d="M583.396,668.197c-2.096,0.709-4.215,1.368-6.354,1.977C579.182,669.565,581.301,668.906,583.396,668.197z"/>
	<path fill="#FFFFFF" d="M615.65,427.802c-1.799-1.216-3.629-2.389-5.489-3.52c-1.859-1.13-3.749-2.216-5.666-3.258
		s-3.861-2.038-5.835-2.988c-3.942-1.9-7.991-3.615-12.137-5.132c-2.072-0.76-4.169-1.469-6.287-2.127
		c-12.711-3.953-26.225-6.083-40.236-6.083c-14.011,0-27.524,2.13-40.235,6.083c-2.118,0.658-4.215,1.369-6.287,2.127
		c-4.146,1.518-8.193,3.231-12.137,5.132c-1.974,0.95-3.918,1.947-5.835,2.988s-3.807,2.128-5.666,3.258
		c-1.86,1.13-3.69,2.304-5.489,3.52c-35.992,24.316-59.656,65.494-59.656,112.198c0,42.034,19.168,79.592,49.239,104.409
		c2.506,2.066,5.088,4.048,7.74,5.934c1.769,1.258,3.567,2.475,5.397,3.647s3.69,2.304,5.579,3.39s3.807,2.128,5.752,3.124
		c5.834,2.988,11.914,5.565,18.201,7.693c2.096,0.709,4.215,1.368,6.354,1.977c11.772,3.343,24.198,5.133,37.042,5.133
		c12.845,0,25.271-1.79,37.043-5.133c2.14-0.607,4.259-1.268,6.354-1.977c6.287-2.128,12.367-4.705,18.201-7.693
		c1.945-0.996,3.863-2.038,5.752-3.124s3.749-2.217,5.579-3.39c1.83-1.174,3.63-2.391,5.397-3.647
		c2.652-1.886,5.234-3.866,7.74-5.934c30.071-24.817,49.239-62.375,49.239-104.409C675.307,493.296,651.643,452.118,615.65,427.802z
		"/>
	<path d="M131.211,448.366c0.956-3.392,1.955-6.771,2.997-10.14C133.166,441.596,132.167,444.975,131.211,448.366z"/>
	<path d="M115.385,563.652L115.385,563.652c0-37.604,4.837-74.48,14.424-110.193C120.222,489.172,115.385,526.048,115.385,563.652z"
		/>
	<path d="M945.791,438.227c1.043,3.369,2.041,6.749,2.997,10.14C947.832,444.975,946.834,441.596,945.791,438.227z"/>
	<path d="M950.191,453.459c9.587,35.712,14.424,72.589,14.424,110.193l0,0C964.615,526.048,959.778,489.172,950.191,453.459z"/>
	<path d="M540,898.27c-184.509,0-334.615-150.106-334.615-334.616c0,0.001,0,0.001,0,0.001
		C205.385,748.162,355.491,898.271,540,898.27c184.508,0.002,334.614-150.106,334.614-334.615c0,0,0,0,0-0.001
		C874.615,748.162,724.508,898.27,540,898.27z"/>
	<path fill="#FFFFFF" d="M948.788,448.366c-0.956-3.392-1.954-6.771-2.997-10.14c-4.169-13.474-9.023-26.771-14.563-39.864
		c-21.389-50.568-51.998-95.974-90.979-134.956c-38.981-38.981-84.389-69.592-134.955-90.981
		c-25.811-10.917-52.405-19.176-79.602-24.751c-14.486-32.94-47.4-55.944-85.693-55.944s-71.206,23.004-85.692,55.944
		c-27.195,5.576-53.791,13.835-79.602,24.751c-50.566,21.389-95.974,52-134.954,90.981c-38.981,38.982-69.591,84.387-90.979,134.956
		c-5.539,13.094-10.395,26.391-14.563,39.864c-1.042,3.369-2.041,6.749-2.997,10.14c-0.479,1.694-0.945,3.393-1.402,5.094
		c-9.587,35.712-14.424,72.589-14.424,110.193c0,57.303,11.232,112.916,33.387,165.293c20.052,47.408,48.208,90.277,83.771,127.573
		c2.37,2.485,4.772,4.946,7.21,7.384c36.545,36.544,78.736,65.731,125.533,86.861c3.12,1.408,6.261,2.781,9.421,4.118
		c4.911,2.077,9.85,4.059,14.815,5.942c48.005,18.22,98.547,27.444,150.479,27.444c51.933,0,102.475-9.226,150.479-27.444
		c4.967-1.885,9.905-3.865,14.815-5.942c3.16-1.337,6.301-2.71,9.421-4.118c46.797-21.13,88.988-50.317,125.534-86.861
		c2.437-2.438,4.84-4.897,7.21-7.384c35.561-37.295,63.719-80.165,83.77-127.573c22.154-52.377,33.387-107.99,33.387-165.293
		c0-37.604-4.837-74.48-14.424-110.193C949.734,451.759,949.268,450.061,948.788,448.366z M874.615,563.653
		c0,184.509-150.106,334.616-334.614,334.616c-184.509,0-334.615-150.107-334.615-334.616c0,0,0,0,0-0.001l0,0
		c0-106.098,49.637-200.813,126.906-262.155c7.188-5.706,14.615-11.124,22.265-16.235c5.735-3.833,11.597-7.494,17.575-10.975
		c27.896-16.245,58.344-28.572,90.58-36.224c16.854,24.642,45.182,40.816,77.289,40.816c32.106,0,60.436-16.174,77.288-40.816
		c32.236,7.651,62.684,19.979,90.58,36.224c5.979,3.481,11.839,7.142,17.575,10.975c7.648,5.111,15.075,10.529,22.264,16.235
		C824.979,362.84,874.615,457.556,874.615,563.653L874.615,563.653L874.615,563.653z"/>
</g>
</svg>
