<?xml version="1.0" encoding="utf-8"?>
<!-- Generator: Adobe Illustrator 16.0.3, SVG Export Plug-In . SVG Version: 6.00 Build 0)  -->
<!DOCTYPE svg PUBLIC "-//W3C//DTD SVG 1.1//EN" "http://www.w3.org/Graphics/SVG/1.1/DTD/svg11.dtd">
<svg version="1.1" id="Capa_1" xmlns="http://www.w3.org/2000/svg" xmlns:xlink="http://www.w3.org/1999/xlink" x="0px" y="0px"
	 width="595.28px" height="841.89px" viewBox="0 0 595.28 841.89" enable-background="new 0 0 595.28 841.89" xml:space="preserve">
<path fill-rule="evenodd" clip-rule="evenodd" d="M135.755,126.2c110.37,0,220.738,0,331.108,0
	c4.651,1.526,9.198,3.728,13.971,4.465c33.875,5.222,63.146,17.923,85.797,45.363c23.818,28.855,30.672,63.192,30.835,97.975
	c0.523,110.708-0.528,221.452-3.093,332.134c-0.725,31.235-16.116,59.23-39.604,80.29c-28.048,25.144-63.525,34.359-99.937,34.414
	c-109.615,0.165-219.28-0.071-328.832-3.298C67.012,715.804,24.929,679.42,10.775,621.8c-2.873-11.692-4.996-23.569-7.464-35.358
	c0-108.163,0-216.324,0-324.487c1.424-3.062,3.911-6.057,4.115-9.196c4.443-68.227,43.812-107.892,105.952-121.97
	C120.801,129.107,128.293,127.723,135.755,126.2z M529.05,440.627c0-10.473,1.523-21.211-0.241-31.381
	c-14.625-84.378-61.159-144.672-139.292-179.61c-18.256-8.165-38.627-11.832-47.252-33.211c-0.518-1.277-2.58-1.931-3.923-2.878
	c-31.744-22.431-59.536-17.545-86.098,13.778c-5.818,6.861-14.387,12.633-22.851,15.818
	C141.479,256.254,87.112,319.259,75.24,411.529c-10.924,84.918,19.876,157.523,89.194,210.458
	c54.677,41.754,117.164,56.301,184.32,41.983C451.202,642.125,533.296,548.238,529.05,440.627z"/>
<path fill-rule="evenodd" clip-rule="evenodd" fill="#FFFFFF" d="M3.311,586.442c2.469,11.789,4.592,23.666,7.464,35.358
	c14.153,57.62,56.237,94.004,115.226,95.743c109.552,3.227,219.217,3.463,328.832,3.298c36.411-0.055,71.889-9.271,99.937-34.414
	c23.487-21.06,38.879-49.055,39.604-80.29c2.564-110.683,3.616-221.426,3.093-332.134c-0.163-34.783-7.017-69.119-30.835-97.975
	c-22.65-27.439-51.922-40.141-85.797-45.363c-4.772-0.737-9.319-2.939-13.971-4.465c45.201,0,90.402,0,135.679,0
	c0,199.493,0,398.99,0,598.893c-199.691,0-399.461,0-599.231,0C3.311,679.048,3.311,632.746,3.311,586.442z"/>
<path fill-rule="evenodd" clip-rule="evenodd" fill="#FFFFFF" d="M529.05,440.627c4.246,107.61-77.848,201.498-180.296,223.344
	c-67.156,14.317-129.643-0.229-184.32-41.983C95.116,569.052,64.315,496.448,75.24,411.529
	c11.872-92.271,66.24-155.275,154.153-188.386c8.464-3.185,17.033-8.957,22.851-15.818c26.562-31.323,54.354-36.208,86.098-13.778
	c1.343,0.947,3.405,1.601,3.923,2.878c8.625,21.379,28.996,25.046,47.252,33.211c78.133,34.938,124.667,95.232,139.292,179.61
	C530.573,419.416,529.05,430.155,529.05,440.627z M477.84,440.233c2.452-66.005-41.255-137.875-111.63-164.998
	c-9.61-3.702-17.055-4.876-26.128,4.116c-18.035,17.872-49.067,22.628-65.992,6.939c-20.281-18.803-37.239-13.972-56.368-1.998
	c-10.598,6.632-21.947,12.494-31.302,20.613c-82.746,71.803-83.631,198.954,1.489,270.394
	c58.065,48.731,143.894,57.104,211.999,11.326C452.411,551.335,475.201,501.366,477.84,440.233z"/>
<path fill-rule="evenodd" clip-rule="evenodd" d="M477.84,440.233c-2.639,61.133-25.429,111.103-77.932,146.393
	c-68.105,45.777-153.934,37.405-211.999-11.326c-85.12-71.44-84.235-198.591-1.489-270.394c9.354-8.119,20.704-13.981,31.302-20.613
	c19.129-11.974,36.087-16.805,56.368,1.998c16.925,15.689,47.957,10.933,65.992-6.939c9.073-8.992,16.518-7.818,26.128-4.116
	C436.585,302.357,480.292,374.228,477.84,440.233z M301.811,365.546c-41.198-3.541-76.128,40.011-75.9,74.248
	c0.29,43.357,40.66,75.479,73.573,75.941c42.382,0.595,78.079-39.038,77.596-75.576C376.499,396.258,335.07,360.977,301.811,365.546
	z"/>
<path fill-rule="evenodd" clip-rule="evenodd" fill="#FFFFFF" d="M301.811,365.546c33.26-4.569,74.688,30.712,75.269,74.613
	c0.483,36.538-35.214,76.171-77.596,75.576c-32.913-0.462-73.283-32.584-73.573-75.941
	C225.683,405.557,260.612,362.005,301.811,365.546z"/>
</svg>
