<?xml version="1.0" encoding="utf-8"?>
<!-- Generator: Adobe Illustrator 16.0.3, SVG Export Plug-In . SVG Version: 6.00 Build 0)  -->
<!DOCTYPE svg PUBLIC "-//W3C//DTD SVG 1.1//EN" "http://www.w3.org/Graphics/SVG/1.1/DTD/svg11.dtd">
<svg version="1.1" id="Capa_1" xmlns="http://www.w3.org/2000/svg" xmlns:xlink="http://www.w3.org/1999/xlink" x="0px" y="0px"
	 width="180px" height="180px" viewBox="400 0 180 180" enable-background="new 400 0 180 180" xml:space="preserve">
<path fill="#28258D" d="M544.5,0.938c-8.5-1.2-101.5-1.1-109.9,0.1c-7.899,1.2-17.5,5.8-22.6,10.9c-5.6,5.6-9.8,14.8-11,24.1
	c-1.2,9.6-1.2,98.2,0,107.8c2.6,19.5,15.1,32.3,34.5,35.1c9.2,1.3,99.8,1.3,109,0c19.4-2.8,31.9-15.6,34.5-35.1
	c1.2-9.601,1.2-98.2,0-107.8C576.4,16.539,563.9,3.738,544.5,0.938z"/>
</svg>
