<?xml version="1.0" encoding="utf-8"?>
<!-- Generator: Adobe Illustrator 16.0.3, SVG Export Plug-In . SVG Version: 6.00 Build 0)  -->
<!DOCTYPE svg PUBLIC "-//W3C//DTD SVG 1.1//EN" "http://www.w3.org/Graphics/SVG/1.1/DTD/svg11.dtd">
<svg version="1.1" id="Capa_1" xmlns="http://www.w3.org/2000/svg" xmlns:xlink="http://www.w3.org/1999/xlink" x="0px" y="0px"
	 width="180px" height="180px" viewBox="0 0 180 180" enable-background="new 0 0 180 180" xml:space="preserve">
<path fill="#16087B" d="M144.5,1C136-0.2,43-0.1,34.6,1.1C26.7,2.3,17.1,6.9,12,12C6.4,17.6,2.2,26.8,1,36.1
	c-1.2,9.6-1.2,98.2,0,107.8c2.6,19.5,15.1,32.3,34.5,35.1c9.2,1.3,99.8,1.3,109,0c19.4-2.8,31.9-15.6,34.5-35.1
	c1.2-9.601,1.2-98.2,0-107.8C176.4,16.6,163.9,3.8,144.5,1z M90,164c-10.8,0-20.2-2.3-30.8-7.6c-7.6-3.7-10.9-6.101-17.5-12.7
	c-14-14-19.6-26.4-20.4-45.4c-0.7-13.8,1.2-23,6.9-34.6c7.5-15,25.3-30.2,40.6-34.8c3-0.9,4.8-2.2,6.3-4.6
	c4.3-6.9,13.8-10.1,21.2-6.9c1.8,0.7,5.101,3.3,7.2,5.8c2.5,2.8,5.5,5,8,5.8c15.8,5,32.8,19.8,40.4,35.3
	c2.399,4.8,4.1,9.4,3.699,10.2c-0.3,0.8-0.1,1.5,0.301,1.5c1.5,0,3.1,9.6,3.1,18.9C159,132.6,127.7,164,90,164z"/>
<path fill="#16087B" d="M141.7,80.2C141.6,79,141.1,78,140.6,78c-0.399,0-0.6-0.7-0.199-1.5c0.3-0.8,0.199-1.5-0.2-1.5
	c-0.4,0-2-2.6-3.7-5.8c-4.3-8.4-13.8-17.4-22.6-21.7c-8.301-3.9-9.2-4.1-10.9-2c-0.7,0.8-1.6,1.2-2.1,0.9c-0.5-0.3-0.9-0.1-0.9,0.5
	s-1.4,1.8-3.2,2.7c-5,2.6-12.8,1.5-17.7-2.4c-2.2-1.8-4.4-3.2-4.9-3.2s-4.6,1.8-9,4c-24.9,12.5-35.3,43.8-23.1,69.7
	c4,8.399,9.5,15.1,16.2,19.7C61.5,139.6,64,141.8,64,142.3c0,0.601,0.2,0.8,0.6,0.5c0.3-0.3,3.5,0.5,7.2,1.8
	c3.7,1.301,7.7,2.4,9,2.4c1.2,0,2.2,0.4,2.2,0.8c0,1,15.6-0.3,21.2-1.8c6.2-1.7,14.5-6.2,21.3-11.5c3.3-2.6,5.9-4.9,5.8-5.1
	c-0.2-0.2,1.2-2.801,3.101-5.601c1.8-2.899,4.199-7.7,5.199-10.6c1-2.8,2.2-5.2,2.5-5.2c0.301,0,0.4-1.1,0.101-2.5
	c-0.2-1.4,0-2.5,0.399-2.5c0.601,0,0.601-4.3,0.101-10.3C142.2,87.1,141.8,81.5,141.7,80.2z M106.8,109.6
	c-2.2,2.4-4.399,4.2-4.8,3.9s-1,0.1-1.3,0.9c-0.3,0.699-2.601,1.899-5.2,2.6c-13,3.6-28.5-8.1-28.5-21.7C67,82.6,77.3,72,89.7,72
	c2.899,0,6.5,0.5,8,1.2c5.3,2.3,10.2,6.9,12.7,12C114.7,93.9,113.5,102.4,106.8,109.6z"/>
</svg>
