<?xml version="1.0" encoding="utf-8"?>
<!-- Generator: Adobe Illustrator 16.0.3, SVG Export Plug-In . SVG Version: 6.00 Build 0)  -->
<!DOCTYPE svg PUBLIC "-//W3C//DTD SVG 1.1//EN" "http://www.w3.org/Graphics/SVG/1.1/DTD/svg11.dtd">
<svg version="1.1" id="Capa_1" xmlns="http://www.w3.org/2000/svg" xmlns:xlink="http://www.w3.org/1999/xlink" x="0px" y="0px"
	 width="180px" height="180px" viewBox="200 0 180 180" enable-background="new 200 0 180 180" xml:space="preserve">
<path fill="#FFFFFF" d="M297.7,73.139c-1.5-0.7-5.101-1.2-8-1.2c-12.4,0-22.7,10.6-22.7,23.3c0,13.601,15.5,25.3,28.5,21.7
	c2.6-0.7,4.9-1.9,5.2-2.6c0.3-0.801,0.899-1.2,1.3-0.9s2.6-1.5,4.8-3.9c6.7-7.199,7.9-15.699,3.601-24.399
	C307.9,80.039,303,75.438,297.7,73.139z"/>
<path fill="#FFFFFF" d="M355.9,75.938c-0.4,0-0.601-0.7-0.301-1.5c0.4-0.8-1.3-5.4-3.699-10.2c-7.601-15.5-24.601-30.3-40.4-35.3
	c-2.5-0.8-5.5-3-8-5.8c-2.1-2.5-5.4-5.1-7.2-5.8c-7.399-3.2-16.899,0-21.2,6.9c-1.5,2.4-3.3,3.7-6.3,4.6
	c-15.3,4.6-33.1,19.8-40.6,34.8c-5.7,11.6-7.601,20.8-6.9,34.6c0.8,19,6.4,31.4,20.4,45.4c6.6,6.6,9.899,9,17.5,12.7
	c10.6,5.3,20,7.6,30.8,7.6c37.7,0,69-31.4,69-69.1C359,85.539,357.4,75.938,355.9,75.938z M342.6,102.938
	c-0.399,0-0.6,1.1-0.399,2.5c0.3,1.4,0.2,2.5-0.101,2.5c-0.3,0-1.5,2.4-2.5,5.2c-1,2.899-3.399,7.7-5.199,10.6
	c-1.9,2.8-3.301,5.4-3.101,5.601c0.101,0.199-2.5,2.5-5.8,5.1c-6.8,5.3-15.1,9.8-21.3,11.5c-5.601,1.5-21.2,2.8-21.2,1.8
	c0-0.399-1-0.8-2.2-0.8c-1.3,0-5.3-1.1-9-2.4c-3.7-1.3-6.899-2.1-7.2-1.8c-0.399,0.3-0.6,0.101-0.6-0.5c0-0.5-2.5-2.7-5.7-4.899
	c-6.7-4.601-12.2-11.301-16.2-19.7c-12.199-25.9-1.8-57.2,23.101-69.7c4.399-2.2,8.5-4,9-4s2.7,1.4,4.899,3.2
	c4.9,3.9,12.7,5,17.7,2.4c1.8-0.9,3.2-2.1,3.2-2.7s0.4-0.8,0.9-0.5c0.5,0.3,1.399-0.1,2.1-0.9c1.7-2.1,2.6-1.9,10.9,2
	c8.8,4.3,18.3,13.3,22.6,21.7c1.7,3.2,3.3,5.8,3.7,5.8c0.399,0,0.5,0.7,0.2,1.5c-0.4,0.8-0.2,1.5,0.199,1.5c0.5,0,1,1,1.101,2.2
	c0.1,1.3,0.5,6.9,1,12.5C343.2,98.639,343.2,102.938,342.6,102.938z"/>
</svg>
