<?xml version="1.0" standalone="no"?>
<!DOCTYPE svg PUBLIC "-//W3C//DTD SVG 20010904//EN"
 "http://www.w3.org/TR/2001/REC-SVG-20010904/DTD/svg10.dtd">
<svg version="1.0" xmlns="http://www.w3.org/2000/svg"
 width="180.000000pt" height="180.000000pt" viewBox="0 0 180.000000 180.000000"
 preserveAspectRatio="xMidYMid meet">

<g transform="translate(0.000000,180.000000) scale(0.100000,-0.100000)"
fill="#000000" stroke="none">
<path d="M346 1789 c-79 -12 -175 -58 -226 -109 -56 -56 -98 -148 -110 -241
-12 -96 -12 -982 0 -1078 26 -195 151 -323 345 -351 92 -13 998 -13 1090 0
194 28 319 156 345 351 12 96 12 982 0 1078 -26 195 -151 323 -345 351 -85 12
-1015 11 -1099 -1z m617 -163 c18 -7 51 -33 72 -58 25 -28 55 -50 80 -58 158
-50 328 -198 404 -353 24 -48 41 -94 37 -102 -3 -8 -1 -15 3 -15 15 0 31 -96
31 -189 0 -377 -313 -691 -690 -691 -108 0 -202 23 -308 76 -76 37 -109 61
-175 127 -140 140 -196 264 -204 454 -7 138 12 230 69 346 75 150 253 302 406
348 30 9 48 22 63 46 43 69 138 101 212 69z"/>
<path d="M652 1320 c-249 -125 -353 -438 -231 -697 40 -84 95 -151 162 -197
32 -22 57 -44 57 -49 0 -6 2 -8 6 -5 3 3 35 -5 72 -18 37 -13 77 -24 90 -24
12 0 22 -4 22 -8 0 -10 156 3 212 18 62 17 145 62 213 115 33 26 59 49 58 51
-2 2 12 28 31 56 18 29 42 77 52 106 10 28 22 52 25 52 3 0 4 11 1 25 -2 14 0
25 4 25 6 0 6 43 1 103 -5 56 -9 112 -10 125 -1 12 -6 22 -11 22 -4 0 -6 7 -2
15 3 8 2 15 -2 15 -4 0 -20 26 -37 58 -43 84 -138 174 -226 217 -83 39 -92 41
-109 20 -7 -8 -16 -12 -21 -9 -5 3 -9 1 -9 -5 0 -6 -14 -18 -32 -27 -50 -26
-128 -15 -177 24 -22 18 -44 32 -49 32 -5 0 -46 -18 -90 -40z m325 -252 c53
-23 102 -69 127 -120 43 -87 31 -172 -36 -244 -22 -24 -44 -42 -48 -39 -4 3
-10 -1 -13 -9 -3 -7 -26 -19 -52 -26 -130 -36 -285 81 -285 217 0 127 103 233
227 233 29 0 65 -5 80 -12z"/>
</g>
</svg>
