<?xml version="1.0" encoding="utf-8"?>
<!-- Generator: Adobe Illustrator 16.0.3, SVG Export Plug-In . SVG Version: 6.00 Build 0)  -->
<!DOCTYPE svg PUBLIC "-//W3C//DTD SVG 1.1//EN" "http://www.w3.org/Graphics/SVG/1.1/DTD/svg11.dtd">
<svg version="1.1" id="Capa_1" xmlns="http://www.w3.org/2000/svg" xmlns:xlink="http://www.w3.org/1999/xlink" x="0px" y="0px"
	 width="1080px" height="1080px" viewBox="0 0 1080 1080" enable-background="new 0 0 1080 1080" xml:space="preserve">
<circle fill="#FFFFFF" cx="540" cy="540" r="500"/>
<g>
	<linearGradient id="SVGID_1_" gradientUnits="userSpaceOnUse" x1="1083.7739" y1="853.9482" x2="-3.7738" y2="226.0522">
		<stop  offset="0" style="stop-color:#110B79"/>
		<stop  offset="0.2167" style="stop-color:#00A0C6"/>
		<stop  offset="0.2296" style="stop-color:#0F9FBB"/>
		<stop  offset="0.2553" style="stop-color:#1A9DA7"/>
		<stop  offset="0.2815" style="stop-color:#269B97"/>
		<stop  offset="0.3081" style="stop-color:#2E9A8A"/>
		<stop  offset="0.3355" style="stop-color:#339A83"/>
		<stop  offset="0.3646" style="stop-color:#349980"/>
		<stop  offset="0.4778" style="stop-color:#349484"/>
		<stop  offset="0.6685" style="stop-color:#2E58A6"/>
		<stop  offset="1" style="stop-color:#111183"/>
	</linearGradient>
	<path fill="url(#SVGID_1_)" d="M780,0H300C134.314,0,0,134.314,0,300v480c0,165.686,134.314,300,300,300h480
		c165.686,0,300-134.314,300-300V300C1080,134.314,945.686,0,780,0z M964.616,563.653c0,57.303-11.233,112.915-33.387,165.293
		c-20.052,47.408-48.209,90.278-83.77,127.572c-2.371,2.486-4.774,4.947-7.21,7.384c-36.545,36.545-78.737,65.732-125.534,86.862
		c-3.12,1.408-6.26,2.781-9.421,4.118c-4.91,2.077-9.849,4.058-14.815,5.942c-48.005,18.22-98.547,27.445-150.479,27.445
		s-102.474-9.226-150.479-27.445c-4.966-1.885-9.905-3.865-14.815-5.942c-3.161-1.337-6.301-2.71-9.421-4.118
		c-46.797-21.13-88.989-50.317-125.534-86.862c-2.437-2.437-4.84-4.897-7.21-7.384c-35.561-37.294-63.718-80.164-83.77-127.572
		c-22.154-52.378-33.387-107.99-33.387-165.293c0,0,0,0,0-0.001l0,0c0-37.604,4.837-74.48,14.425-110.193
		c0.457-1.701,0.924-3.398,1.402-5.094c0.956-3.391,1.955-6.77,2.997-10.139c4.168-13.474,9.024-26.771,14.563-39.865
		c21.389-50.568,51.999-95.974,90.98-134.956c38.981-38.981,84.387-69.592,134.955-90.981
		c25.809-10.917,52.405-19.176,79.601-24.751c14.486-32.94,47.401-55.944,85.693-55.944s71.207,23.004,85.693,55.944
		c27.195,5.576,53.792,13.835,79.601,24.751c50.568,21.389,95.974,52,134.955,90.981c38.981,38.982,69.591,84.387,90.98,134.956
		c5.539,13.094,10.395,26.391,14.563,39.865c1.042,3.369,2.041,6.749,2.997,10.139c0.478,1.695,0.945,3.393,1.402,5.094
		C959.778,489.172,964.616,526.048,964.616,563.653L964.616,563.653C964.616,563.653,964.616,563.653,964.616,563.653z"/>
	<path fill="#FF8000" d="M115.384,563.652C115.384,563.653,115.384,563.653,115.384,563.652c0,57.304,11.233,112.916,33.387,165.294
		c20.052,47.408,48.208,90.278,83.77,127.572c-35.561-37.295-63.718-80.165-83.77-127.573
		C126.617,676.568,115.384,620.955,115.384,563.652z"/>
	<linearGradient id="SVGID_2_" gradientUnits="userSpaceOnUse" x1="918.6152" y1="1140.0117" x2="-168.9325" y2="512.1157">
		<stop  offset="0" style="stop-color:#110B79"/>
		<stop  offset="0.2167" style="stop-color:#00A0C6"/>
		<stop  offset="0.2296" style="stop-color:#0F9FBB"/>
		<stop  offset="0.2553" style="stop-color:#1A9DA7"/>
		<stop  offset="0.2815" style="stop-color:#269B97"/>
		<stop  offset="0.3081" style="stop-color:#2E9A8A"/>
		<stop  offset="0.3355" style="stop-color:#339A83"/>
		<stop  offset="0.3646" style="stop-color:#349980"/>
		<stop  offset="0.4778" style="stop-color:#349484"/>
		<stop  offset="0.6685" style="stop-color:#2E58A6"/>
		<stop  offset="1" style="stop-color:#111183"/>
	</linearGradient>
	<path fill="url(#SVGID_2_)" d="M115.384,563.652C115.384,563.653,115.384,563.653,115.384,563.652
		c0,57.304,11.233,112.916,33.387,165.294c20.052,47.408,48.208,90.278,83.77,127.572c-35.561-37.295-63.718-80.165-83.77-127.573
		C126.617,676.568,115.384,620.955,115.384,563.652z"/>
	<path fill="#FF8000" d="M847.459,856.519c35.561-37.294,63.718-80.164,83.77-127.572c22.154-52.378,33.387-107.99,33.387-165.293
		c0,0,0,0,0-0.001c0,57.303-11.233,112.916-33.387,165.293C911.177,776.354,883.02,819.224,847.459,856.519z"/>
	<linearGradient id="SVGID_3_" gradientUnits="userSpaceOnUse" x1="1101.6338" y1="823.0137" x2="14.086" y2="195.1176">
		<stop  offset="0" style="stop-color:#110B79"/>
		<stop  offset="0.2167" style="stop-color:#00A0C6"/>
		<stop  offset="0.2296" style="stop-color:#0F9FBB"/>
		<stop  offset="0.2553" style="stop-color:#1A9DA7"/>
		<stop  offset="0.2815" style="stop-color:#269B97"/>
		<stop  offset="0.3081" style="stop-color:#2E9A8A"/>
		<stop  offset="0.3355" style="stop-color:#339A83"/>
		<stop  offset="0.3646" style="stop-color:#349980"/>
		<stop  offset="0.4778" style="stop-color:#349484"/>
		<stop  offset="0.6685" style="stop-color:#2E58A6"/>
		<stop  offset="1" style="stop-color:#111183"/>
	</linearGradient>
	<path fill="url(#SVGID_3_)" d="M847.459,856.519c35.561-37.294,63.718-80.164,83.77-127.572
		c22.154-52.378,33.387-107.99,33.387-165.293c0,0,0,0,0-0.001c0,57.303-11.233,112.916-33.387,165.293
		C911.177,776.354,883.02,819.224,847.459,856.519z"/>
	<path fill="#FF8000" d="M840.249,863.902c-36.545,36.544-78.737,65.732-125.534,86.862
		C761.512,929.635,803.704,900.447,840.249,863.902z"/>
	<linearGradient id="SVGID_4_" gradientUnits="userSpaceOnUse" x1="984.0845" y1="1026.6152" x2="-103.4633" y2="398.7192">
		<stop  offset="0" style="stop-color:#110B79"/>
		<stop  offset="0.2167" style="stop-color:#00A0C6"/>
		<stop  offset="0.2296" style="stop-color:#0F9FBB"/>
		<stop  offset="0.2553" style="stop-color:#1A9DA7"/>
		<stop  offset="0.2815" style="stop-color:#269B97"/>
		<stop  offset="0.3081" style="stop-color:#2E9A8A"/>
		<stop  offset="0.3355" style="stop-color:#339A83"/>
		<stop  offset="0.3646" style="stop-color:#349980"/>
		<stop  offset="0.4778" style="stop-color:#349484"/>
		<stop  offset="0.6685" style="stop-color:#2E58A6"/>
		<stop  offset="1" style="stop-color:#111183"/>
	</linearGradient>
	<path fill="url(#SVGID_4_)" d="M840.249,863.902c-36.545,36.544-78.737,65.732-125.534,86.862
		C761.512,929.635,803.704,900.447,840.249,863.902z"/>
	<path fill="#FF8000" d="M365.285,950.765c-46.797-21.13-88.989-50.318-125.534-86.862
		C276.296,900.447,318.488,929.635,365.285,950.765z"/>
	<linearGradient id="SVGID_5_" gradientUnits="userSpaceOnUse" x1="864.8174" y1="1233.1914" x2="-222.7304" y2="605.2953">
		<stop  offset="0" style="stop-color:#110B79"/>
		<stop  offset="0.2167" style="stop-color:#00A0C6"/>
		<stop  offset="0.2296" style="stop-color:#0F9FBB"/>
		<stop  offset="0.2553" style="stop-color:#1A9DA7"/>
		<stop  offset="0.2815" style="stop-color:#269B97"/>
		<stop  offset="0.3081" style="stop-color:#2E9A8A"/>
		<stop  offset="0.3355" style="stop-color:#339A83"/>
		<stop  offset="0.3646" style="stop-color:#349980"/>
		<stop  offset="0.4778" style="stop-color:#349484"/>
		<stop  offset="0.6685" style="stop-color:#2E58A6"/>
		<stop  offset="1" style="stop-color:#111183"/>
	</linearGradient>
	<path fill="url(#SVGID_5_)" d="M365.285,950.765c-46.797-21.13-88.989-50.318-125.534-86.862
		C276.296,900.447,318.488,929.635,365.285,950.765z"/>
	<path fill="#FF8000" d="M389.521,960.825c48.005,18.22,98.547,27.445,150.479,27.445s102.474-9.226,150.479-27.445
		C642.474,979.045,591.931,988.27,540,988.27S437.526,979.045,389.521,960.825z"/>
	<linearGradient id="SVGID_6_" gradientUnits="userSpaceOnUse" x1="901.5513" y1="1169.5674" x2="-185.9965" y2="541.6713">
		<stop  offset="0" style="stop-color:#110B79"/>
		<stop  offset="0.2167" style="stop-color:#00A0C6"/>
		<stop  offset="0.2296" style="stop-color:#0F9FBB"/>
		<stop  offset="0.2553" style="stop-color:#1A9DA7"/>
		<stop  offset="0.2815" style="stop-color:#269B97"/>
		<stop  offset="0.3081" style="stop-color:#2E9A8A"/>
		<stop  offset="0.3355" style="stop-color:#339A83"/>
		<stop  offset="0.3646" style="stop-color:#349980"/>
		<stop  offset="0.4778" style="stop-color:#349484"/>
		<stop  offset="0.6685" style="stop-color:#2E58A6"/>
		<stop  offset="1" style="stop-color:#111183"/>
	</linearGradient>
	<path fill="url(#SVGID_6_)" d="M389.521,960.825c48.005,18.22,98.547,27.445,150.479,27.445s102.474-9.226,150.479-27.445
		C642.474,979.045,591.931,988.27,540,988.27S437.526,979.045,389.521,960.825z"/>
	<linearGradient id="SVGID_7_" gradientUnits="userSpaceOnUse" x1="1073.5288" y1="871.6953" x2="-14.0189" y2="243.7992">
		<stop  offset="0" style="stop-color:#110B79"/>
		<stop  offset="0.2167" style="stop-color:#00A0C6"/>
		<stop  offset="0.2296" style="stop-color:#0F9FBB"/>
		<stop  offset="0.2553" style="stop-color:#1A9DA7"/>
		<stop  offset="0.2815" style="stop-color:#269B97"/>
		<stop  offset="0.3081" style="stop-color:#2E9A8A"/>
		<stop  offset="0.3355" style="stop-color:#339A83"/>
		<stop  offset="0.3646" style="stop-color:#349980"/>
		<stop  offset="0.4778" style="stop-color:#349484"/>
		<stop  offset="0.6685" style="stop-color:#2E58A6"/>
		<stop  offset="1" style="stop-color:#111183"/>
	</linearGradient>
	<path fill="url(#SVGID_7_)" d="M747.708,301.498c-7.188-5.706-14.615-11.124-22.264-16.235
		c-5.736-3.833-11.597-7.494-17.575-10.975c-27.897-16.245-58.344-28.572-90.581-36.224C600.435,262.706,572.108,278.88,540,278.88
		c-32.107,0-60.435-16.174-77.289-40.816c-32.237,7.651-62.683,19.979-90.581,36.224c-5.978,3.481-11.839,7.142-17.575,10.975
		c-7.648,5.111-15.076,10.529-22.264,16.235c-77.27,61.343-126.908,156.058-126.908,262.155
		c0,184.51,150.108,334.617,334.616,334.617s334.615-150.107,334.616-334.617C874.616,457.556,824.978,362.84,747.708,301.498z
		 M675.306,540c0,42.034-19.167,79.591-49.239,104.409c-2.506,2.067-5.088,4.048-7.74,5.934c-1.769,1.258-3.568,2.474-5.398,3.647
		c-1.83,1.173-3.69,2.304-5.579,3.39s-3.807,2.128-5.751,3.124c-5.834,2.988-11.914,5.565-18.202,7.693
		c-2.096,0.709-4.214,1.368-6.354,1.977c-11.772,3.343-24.198,5.133-37.042,5.133s-25.27-1.79-37.042-5.133
		c-2.14-0.608-4.259-1.268-6.354-1.977c-6.288-2.128-12.367-4.705-18.202-7.693c-1.945-0.996-3.863-2.038-5.751-3.124
		s-3.749-2.217-5.579-3.39c-1.83-1.174-3.63-2.39-5.398-3.647c-2.652-1.886-5.234-3.866-7.74-5.934
		c-30.071-24.817-49.239-62.375-49.239-104.409c0,0,0,0,0,0l0,0c0-46.704,23.664-87.882,59.655-112.198
		c1.799-1.216,3.63-2.389,5.49-3.52c1.86-1.13,3.749-2.216,5.666-3.258c1.917-1.042,3.862-2.038,5.834-2.988
		c3.943-1.9,7.993-3.615,12.138-5.132c2.072-0.759,4.168-1.468,6.287-2.127c12.71-3.953,26.225-6.083,40.236-6.083
		s27.525,2.13,40.236,6.083c2.119,0.659,4.215,1.369,6.287,2.127c4.145,1.518,8.194,3.232,12.138,5.132
		c1.972,0.95,3.917,1.947,5.834,2.988c1.917,1.042,3.806,2.128,5.666,3.258c1.86,1.13,3.69,2.304,5.49,3.52
		C651.643,452.118,675.306,493.296,675.306,540L675.306,540C675.306,540,675.306,540,675.306,540z"/>
	<path fill="#FF8000" d="M475.505,421.024c1.917-1.042,3.862-2.038,5.834-2.988C479.367,418.986,477.422,419.983,475.505,421.024z"
		/>
	<linearGradient id="SVGID_8_" gradientUnits="userSpaceOnUse" x1="1120.5449" y1="790.2607" x2="32.9972" y2="162.3647">
		<stop  offset="0" style="stop-color:#110B79"/>
		<stop  offset="0.2167" style="stop-color:#00A0C6"/>
		<stop  offset="0.2296" style="stop-color:#0F9FBB"/>
		<stop  offset="0.2553" style="stop-color:#1A9DA7"/>
		<stop  offset="0.2815" style="stop-color:#269B97"/>
		<stop  offset="0.3081" style="stop-color:#2E9A8A"/>
		<stop  offset="0.3355" style="stop-color:#339A83"/>
		<stop  offset="0.3646" style="stop-color:#349980"/>
		<stop  offset="0.4778" style="stop-color:#349484"/>
		<stop  offset="0.6685" style="stop-color:#2E58A6"/>
		<stop  offset="1" style="stop-color:#111183"/>
	</linearGradient>
	<path fill="url(#SVGID_8_)" d="M475.505,421.024c1.917-1.042,3.862-2.038,5.834-2.988
		C479.367,418.986,477.422,419.983,475.505,421.024z"/>
	<path fill="#FF8000" d="M493.477,412.904c2.072-0.759,4.168-1.468,6.287-2.127C497.646,411.436,495.549,412.145,493.477,412.904z"
		/>
	<linearGradient id="SVGID_9_" gradientUnits="userSpaceOnUse" x1="1128.4248" y1="776.6123" x2="40.8771" y2="148.7162">
		<stop  offset="0" style="stop-color:#110B79"/>
		<stop  offset="0.2167" style="stop-color:#00A0C6"/>
		<stop  offset="0.2296" style="stop-color:#0F9FBB"/>
		<stop  offset="0.2553" style="stop-color:#1A9DA7"/>
		<stop  offset="0.2815" style="stop-color:#269B97"/>
		<stop  offset="0.3081" style="stop-color:#2E9A8A"/>
		<stop  offset="0.3355" style="stop-color:#339A83"/>
		<stop  offset="0.3646" style="stop-color:#349980"/>
		<stop  offset="0.4778" style="stop-color:#349484"/>
		<stop  offset="0.6685" style="stop-color:#2E58A6"/>
		<stop  offset="1" style="stop-color:#111183"/>
	</linearGradient>
	<path fill="url(#SVGID_9_)" d="M493.477,412.904c2.072-0.759,4.168-1.468,6.287-2.127
		C497.646,411.436,495.549,412.145,493.477,412.904z"/>
	<path fill="#FF8000" d="M580.236,410.776c2.119,0.659,4.215,1.369,6.287,2.127C584.451,412.145,582.354,411.436,580.236,410.776z"
		/>
	<linearGradient id="SVGID_10_" gradientUnits="userSpaceOnUse" x1="1150.1143" y1="739.0449" x2="62.5665" y2="111.1488">
		<stop  offset="0" style="stop-color:#110B79"/>
		<stop  offset="0.2167" style="stop-color:#00A0C6"/>
		<stop  offset="0.2296" style="stop-color:#0F9FBB"/>
		<stop  offset="0.2553" style="stop-color:#1A9DA7"/>
		<stop  offset="0.2815" style="stop-color:#269B97"/>
		<stop  offset="0.3081" style="stop-color:#2E9A8A"/>
		<stop  offset="0.3355" style="stop-color:#339A83"/>
		<stop  offset="0.3646" style="stop-color:#349980"/>
		<stop  offset="0.4778" style="stop-color:#349484"/>
		<stop  offset="0.6685" style="stop-color:#2E58A6"/>
		<stop  offset="1" style="stop-color:#111183"/>
	</linearGradient>
	<path fill="url(#SVGID_10_)" d="M580.236,410.776c2.119,0.659,4.215,1.369,6.287,2.127
		C584.451,412.145,582.354,411.436,580.236,410.776z"/>
	<path fill="#FF8000" d="M469.839,424.282c1.86-1.13,3.749-2.216,5.666-3.258C473.588,422.066,471.699,423.152,469.839,424.282z"/>
	<linearGradient id="SVGID_11_" gradientUnits="userSpaceOnUse" x1="1117.7559" y1="795.0928" x2="30.2081" y2="167.1967">
		<stop  offset="0" style="stop-color:#110B79"/>
		<stop  offset="0.2167" style="stop-color:#00A0C6"/>
		<stop  offset="0.2296" style="stop-color:#0F9FBB"/>
		<stop  offset="0.2553" style="stop-color:#1A9DA7"/>
		<stop  offset="0.2815" style="stop-color:#269B97"/>
		<stop  offset="0.3081" style="stop-color:#2E9A8A"/>
		<stop  offset="0.3355" style="stop-color:#339A83"/>
		<stop  offset="0.3646" style="stop-color:#349980"/>
		<stop  offset="0.4778" style="stop-color:#349484"/>
		<stop  offset="0.6685" style="stop-color:#2E58A6"/>
		<stop  offset="1" style="stop-color:#111183"/>
	</linearGradient>
	<path fill="url(#SVGID_11_)" d="M469.839,424.282c1.86-1.13,3.749-2.216,5.666-3.258
		C473.588,422.066,471.699,423.152,469.839,424.282z"/>
	<path fill="#FF8000" d="M615.651,427.802c35.992,24.316,59.655,65.494,59.655,112.198l0,0
		C675.306,493.296,651.643,452.118,615.651,427.802z"/>
	<linearGradient id="SVGID_12_" gradientUnits="userSpaceOnUse" x1="1134.4365" y1="766.2012" x2="46.8888" y2="138.3051">
		<stop  offset="0" style="stop-color:#110B79"/>
		<stop  offset="0.2167" style="stop-color:#00A0C6"/>
		<stop  offset="0.2296" style="stop-color:#0F9FBB"/>
		<stop  offset="0.2553" style="stop-color:#1A9DA7"/>
		<stop  offset="0.2815" style="stop-color:#269B97"/>
		<stop  offset="0.3081" style="stop-color:#2E9A8A"/>
		<stop  offset="0.3355" style="stop-color:#339A83"/>
		<stop  offset="0.3646" style="stop-color:#349980"/>
		<stop  offset="0.4778" style="stop-color:#349484"/>
		<stop  offset="0.6685" style="stop-color:#2E58A6"/>
		<stop  offset="1" style="stop-color:#111183"/>
	</linearGradient>
	<path fill="url(#SVGID_12_)" d="M615.651,427.802c35.992,24.316,59.655,65.494,59.655,112.198l0,0
		C675.306,493.296,651.643,452.118,615.651,427.802z"/>
	<path fill="#FF8000" d="M464.349,427.802c1.799-1.216,3.63-2.389,5.49-3.52C467.979,425.413,466.148,426.586,464.349,427.802z"/>
	<linearGradient id="SVGID_13_" gradientUnits="userSpaceOnUse" x1="1114.8936" y1="800.0498" x2="27.3458" y2="172.1537">
		<stop  offset="0" style="stop-color:#110B79"/>
		<stop  offset="0.2167" style="stop-color:#00A0C6"/>
		<stop  offset="0.2296" style="stop-color:#0F9FBB"/>
		<stop  offset="0.2553" style="stop-color:#1A9DA7"/>
		<stop  offset="0.2815" style="stop-color:#269B97"/>
		<stop  offset="0.3081" style="stop-color:#2E9A8A"/>
		<stop  offset="0.3355" style="stop-color:#339A83"/>
		<stop  offset="0.3646" style="stop-color:#349980"/>
		<stop  offset="0.4778" style="stop-color:#349484"/>
		<stop  offset="0.6685" style="stop-color:#2E58A6"/>
		<stop  offset="1" style="stop-color:#111183"/>
	</linearGradient>
	<path fill="url(#SVGID_13_)" d="M464.349,427.802c1.799-1.216,3.63-2.389,5.49-3.52
		C467.979,425.413,466.148,426.586,464.349,427.802z"/>
	<path fill="#FF8000" d="M598.661,418.036c1.972,0.95,3.917,1.947,5.834,2.988C602.578,419.983,600.633,418.986,598.661,418.036z"/>
	<linearGradient id="SVGID_14_" gradientUnits="userSpaceOnUse" x1="1151.334" y1="736.9326" x2="63.7862" y2="109.0365">
		<stop  offset="0" style="stop-color:#110B79"/>
		<stop  offset="0.2167" style="stop-color:#00A0C6"/>
		<stop  offset="0.2296" style="stop-color:#0F9FBB"/>
		<stop  offset="0.2553" style="stop-color:#1A9DA7"/>
		<stop  offset="0.2815" style="stop-color:#269B97"/>
		<stop  offset="0.3081" style="stop-color:#2E9A8A"/>
		<stop  offset="0.3355" style="stop-color:#339A83"/>
		<stop  offset="0.3646" style="stop-color:#349980"/>
		<stop  offset="0.4778" style="stop-color:#349484"/>
		<stop  offset="0.6685" style="stop-color:#2E58A6"/>
		<stop  offset="1" style="stop-color:#111183"/>
	</linearGradient>
	<path fill="url(#SVGID_14_)" d="M598.661,418.036c1.972,0.95,3.917,1.947,5.834,2.988
		C602.578,419.983,600.633,418.986,598.661,418.036z"/>
	<path fill="#FF8000" d="M610.161,424.282c1.86,1.13,3.69,2.304,5.49,3.52C613.852,426.586,612.021,425.413,610.161,424.282z"/>
	<linearGradient id="SVGID_15_" gradientUnits="userSpaceOnUse" x1="1151.3467" y1="736.9111" x2="63.7989" y2="109.0151">
		<stop  offset="0" style="stop-color:#110B79"/>
		<stop  offset="0.2167" style="stop-color:#00A0C6"/>
		<stop  offset="0.2296" style="stop-color:#0F9FBB"/>
		<stop  offset="0.2553" style="stop-color:#1A9DA7"/>
		<stop  offset="0.2815" style="stop-color:#269B97"/>
		<stop  offset="0.3081" style="stop-color:#2E9A8A"/>
		<stop  offset="0.3355" style="stop-color:#339A83"/>
		<stop  offset="0.3646" style="stop-color:#349980"/>
		<stop  offset="0.4778" style="stop-color:#349484"/>
		<stop  offset="0.6685" style="stop-color:#2E58A6"/>
		<stop  offset="1" style="stop-color:#111183"/>
	</linearGradient>
	<path fill="url(#SVGID_15_)" d="M610.161,424.282c1.86,1.13,3.69,2.304,5.49,3.52C613.852,426.586,612.021,425.413,610.161,424.282
		z"/>
	<path fill="#FF8000" d="M464.349,427.802c-35.992,24.316-59.655,65.494-59.655,112.198l0,0
		C404.694,493.296,428.357,452.118,464.349,427.802z"/>
	<linearGradient id="SVGID_16_" gradientUnits="userSpaceOnUse" x1="1081.6968" y1="857.5479" x2="-5.8511" y2="229.6517">
		<stop  offset="0" style="stop-color:#110B79"/>
		<stop  offset="0.2167" style="stop-color:#00A0C6"/>
		<stop  offset="0.2296" style="stop-color:#0F9FBB"/>
		<stop  offset="0.2553" style="stop-color:#1A9DA7"/>
		<stop  offset="0.2815" style="stop-color:#269B97"/>
		<stop  offset="0.3081" style="stop-color:#2E9A8A"/>
		<stop  offset="0.3355" style="stop-color:#339A83"/>
		<stop  offset="0.3646" style="stop-color:#349980"/>
		<stop  offset="0.4778" style="stop-color:#349484"/>
		<stop  offset="0.6685" style="stop-color:#2E58A6"/>
		<stop  offset="1" style="stop-color:#111183"/>
	</linearGradient>
	<path fill="url(#SVGID_16_)" d="M464.349,427.802c-35.992,24.316-59.655,65.494-59.655,112.198l0,0
		C404.694,493.296,428.357,452.118,464.349,427.802z"/>
	<path fill="#FF8000" d="M604.495,421.024c1.917,1.042,3.806,2.128,5.666,3.258C608.301,423.152,606.412,422.066,604.495,421.024z"
		/>
	<linearGradient id="SVGID_17_" gradientUnits="userSpaceOnUse" x1="1151.4277" y1="736.7705" x2="63.88" y2="108.8744">
		<stop  offset="0" style="stop-color:#110B79"/>
		<stop  offset="0.2167" style="stop-color:#00A0C6"/>
		<stop  offset="0.2296" style="stop-color:#0F9FBB"/>
		<stop  offset="0.2553" style="stop-color:#1A9DA7"/>
		<stop  offset="0.2815" style="stop-color:#269B97"/>
		<stop  offset="0.3081" style="stop-color:#2E9A8A"/>
		<stop  offset="0.3355" style="stop-color:#339A83"/>
		<stop  offset="0.3646" style="stop-color:#349980"/>
		<stop  offset="0.4778" style="stop-color:#349484"/>
		<stop  offset="0.6685" style="stop-color:#2E58A6"/>
		<stop  offset="1" style="stop-color:#111183"/>
	</linearGradient>
	<path fill="url(#SVGID_17_)" d="M604.495,421.024c1.917,1.042,3.806,2.128,5.666,3.258
		C608.301,423.152,606.412,422.066,604.495,421.024z"/>
	<path fill="#FF8000" d="M707.869,274.288c5.978,3.481,11.839,7.142,17.575,10.975C719.708,281.43,713.847,277.769,707.869,274.288z
		"/>
	<linearGradient id="SVGID_18_" gradientUnits="userSpaceOnUse" x1="1240.6201" y1="582.2852" x2="153.0724" y2="-45.6109">
		<stop  offset="0" style="stop-color:#110B79"/>
		<stop  offset="0.2167" style="stop-color:#00A0C6"/>
		<stop  offset="0.2296" style="stop-color:#0F9FBB"/>
		<stop  offset="0.2553" style="stop-color:#1A9DA7"/>
		<stop  offset="0.2815" style="stop-color:#269B97"/>
		<stop  offset="0.3081" style="stop-color:#2E9A8A"/>
		<stop  offset="0.3355" style="stop-color:#339A83"/>
		<stop  offset="0.3646" style="stop-color:#349980"/>
		<stop  offset="0.4778" style="stop-color:#349484"/>
		<stop  offset="0.6685" style="stop-color:#2E58A6"/>
		<stop  offset="1" style="stop-color:#111183"/>
	</linearGradient>
	<path fill="url(#SVGID_18_)" d="M707.869,274.288c5.978,3.481,11.839,7.142,17.575,10.975
		C719.708,281.43,713.847,277.769,707.869,274.288z"/>
	<path fill="#FF8000" d="M354.556,285.263c5.736-3.833,11.597-7.494,17.575-10.975C366.153,277.769,360.292,281.43,354.556,285.263z
		"/>
	<linearGradient id="SVGID_19_" gradientUnits="userSpaceOnUse" x1="1152.291" y1="735.2744" x2="64.7433" y2="107.3783">
		<stop  offset="0" style="stop-color:#110B79"/>
		<stop  offset="0.2167" style="stop-color:#00A0C6"/>
		<stop  offset="0.2296" style="stop-color:#0F9FBB"/>
		<stop  offset="0.2553" style="stop-color:#1A9DA7"/>
		<stop  offset="0.2815" style="stop-color:#269B97"/>
		<stop  offset="0.3081" style="stop-color:#2E9A8A"/>
		<stop  offset="0.3355" style="stop-color:#339A83"/>
		<stop  offset="0.3646" style="stop-color:#349980"/>
		<stop  offset="0.4778" style="stop-color:#349484"/>
		<stop  offset="0.6685" style="stop-color:#2E58A6"/>
		<stop  offset="1" style="stop-color:#111183"/>
	</linearGradient>
	<path fill="url(#SVGID_19_)" d="M354.556,285.263c5.736-3.833,11.597-7.494,17.575-10.975
		C366.153,277.769,360.292,281.43,354.556,285.263z"/>
	<path fill="#FF8000" d="M332.292,301.498c-77.271,61.343-126.908,156.058-126.908,262.155l0,0
		C205.384,457.556,255.022,362.84,332.292,301.498z"/>
	<linearGradient id="SVGID_20_" gradientUnits="userSpaceOnUse" x1="1062.501" y1="890.7969" x2="-25.0468" y2="262.9008">
		<stop  offset="0" style="stop-color:#110B79"/>
		<stop  offset="0.2167" style="stop-color:#00A0C6"/>
		<stop  offset="0.2296" style="stop-color:#0F9FBB"/>
		<stop  offset="0.2553" style="stop-color:#1A9DA7"/>
		<stop  offset="0.2815" style="stop-color:#269B97"/>
		<stop  offset="0.3081" style="stop-color:#2E9A8A"/>
		<stop  offset="0.3355" style="stop-color:#339A83"/>
		<stop  offset="0.3646" style="stop-color:#349980"/>
		<stop  offset="0.4778" style="stop-color:#349484"/>
		<stop  offset="0.6685" style="stop-color:#2E58A6"/>
		<stop  offset="1" style="stop-color:#111183"/>
	</linearGradient>
	<path fill="url(#SVGID_20_)" d="M332.292,301.498c-77.271,61.343-126.908,156.058-126.908,262.155l0,0
		C205.384,457.556,255.022,362.84,332.292,301.498z"/>
	<path fill="#FF8000" d="M747.708,301.498c77.27,61.343,126.908,156.058,126.908,262.155l0,0
		C874.616,457.556,824.979,362.84,747.708,301.498z"/>
	<linearGradient id="SVGID_21_" gradientUnits="userSpaceOnUse" x1="1198.082" y1="655.9629" x2="110.5343" y2="28.0668">
		<stop  offset="0" style="stop-color:#110B79"/>
		<stop  offset="0.2167" style="stop-color:#00A0C6"/>
		<stop  offset="0.2296" style="stop-color:#0F9FBB"/>
		<stop  offset="0.2553" style="stop-color:#1A9DA7"/>
		<stop  offset="0.2815" style="stop-color:#269B97"/>
		<stop  offset="0.3081" style="stop-color:#2E9A8A"/>
		<stop  offset="0.3355" style="stop-color:#339A83"/>
		<stop  offset="0.3646" style="stop-color:#349980"/>
		<stop  offset="0.4778" style="stop-color:#349484"/>
		<stop  offset="0.6685" style="stop-color:#2E58A6"/>
		<stop  offset="1" style="stop-color:#111183"/>
	</linearGradient>
	<path fill="url(#SVGID_21_)" d="M747.708,301.498c77.27,61.343,126.908,156.058,126.908,262.155l0,0
		C874.616,457.556,824.979,362.84,747.708,301.498z"/>
	<path fill="#FF8000" d="M618.327,650.343c-1.769,1.258-3.568,2.474-5.398,3.647C614.759,652.816,616.559,651.601,618.327,650.343z"
		/>
	<path fill="#FF8000" d="M612.929,653.99c-1.83,1.173-3.69,2.304-5.579,3.39C609.238,656.294,611.099,655.163,612.929,653.99z"/>
	<path fill="#FF8000" d="M607.35,657.38c-1.889,1.086-3.807,2.128-5.751,3.124C603.543,659.508,605.461,658.466,607.35,657.38z"/>
	<path fill="#FF8000" d="M404.694,540C404.694,540,404.694,540,404.694,540c0,42.034,19.167,79.592,49.239,104.409
		C423.861,619.592,404.694,582.034,404.694,540z"/>
	<path fill="#FF8000" d="M472.65,657.38c-1.889-1.086-3.749-2.217-5.579-3.39C468.901,655.163,470.762,656.294,472.65,657.38z"/>
	<path fill="#FF8000" d="M467.071,653.99c-1.83-1.174-3.63-2.39-5.398-3.647C463.441,651.601,465.241,652.816,467.071,653.99z"/>
	<path fill="#FF8000" d="M626.067,644.409c30.071-24.817,49.239-62.375,49.239-104.409c0,0,0,0,0,0
		C675.306,582.034,656.139,619.592,626.067,644.409z"/>
	<path fill="#FF8000" d="M502.958,670.174c-2.14-0.608-4.259-1.268-6.354-1.977C498.699,668.906,500.818,669.565,502.958,670.174z"
		/>
	<path fill="#FF8000" d="M478.402,660.504c-1.945-0.996-3.863-2.038-5.751-3.124C474.539,658.466,476.457,659.508,478.402,660.504z"
		/>
	<path fill="#FF8000" d="M583.396,668.197c-2.096,0.709-4.214,1.368-6.354,1.977C579.182,669.565,581.301,668.906,583.396,668.197z"
		/>
	<path fill="none" d="M615.651,427.802c-1.799-1.216-3.63-2.389-5.49-3.52c-1.86-1.13-3.749-2.216-5.666-3.258
		c-1.917-1.042-3.862-2.038-5.834-2.988c-3.943-1.9-7.993-3.615-12.138-5.132c-2.072-0.759-4.168-1.468-6.287-2.127
		c-12.71-3.953-26.225-6.083-40.236-6.083s-27.525,2.13-40.236,6.083c-2.119,0.659-4.215,1.369-6.287,2.127
		c-4.145,1.518-8.194,3.232-12.138,5.132c-1.972,0.95-3.917,1.947-5.834,2.988c-1.917,1.042-3.806,2.128-5.666,3.258
		c-1.86,1.13-3.69,2.304-5.49,3.52c-35.992,24.316-59.655,65.494-59.655,112.198c0,42.034,19.167,79.592,49.239,104.409
		c2.506,2.067,5.088,4.048,7.74,5.934c1.769,1.258,3.568,2.474,5.398,3.647c1.83,1.173,3.69,2.304,5.579,3.39
		s3.807,2.128,5.751,3.124c5.834,2.988,11.914,5.565,18.202,7.693c2.096,0.709,4.214,1.368,6.354,1.977
		c11.772,3.343,24.198,5.133,37.042,5.133s25.27-1.79,37.042-5.133c2.14-0.608,4.259-1.268,6.354-1.977
		c6.288-2.128,12.367-4.705,18.202-7.693c1.945-0.996,3.863-2.038,5.751-3.124s3.749-2.217,5.579-3.39
		c1.83-1.174,3.63-2.39,5.398-3.647c2.652-1.886,5.234-3.866,7.74-5.934c30.071-24.817,49.239-62.375,49.239-104.409
		C675.306,493.296,651.643,452.118,615.651,427.802z"/>
	<path fill="#FF8000" d="M131.211,448.366c0.956-3.391,1.955-6.77,2.997-10.139C133.166,441.596,132.167,444.975,131.211,448.366z"
		/>
	<path fill="#FF8000" d="M115.384,563.652L115.384,563.652c0-37.604,4.837-74.48,14.425-110.193
		C120.222,489.172,115.384,526.048,115.384,563.652z"/>
	<path fill="#FF8000" d="M945.792,438.227c1.042,3.369,2.041,6.749,2.997,10.139C947.833,444.975,946.834,441.596,945.792,438.227z"
		/>
	<path fill="#FF8000" d="M950.191,453.459c9.587,35.712,14.425,72.589,14.425,110.193l0,0
		C964.616,526.048,959.778,489.172,950.191,453.459z"/>
	<path fill="#FF8000" d="M540,898.27c-184.508,0-334.615-150.107-334.616-334.617c0,0.001,0,0.001,0,0.001
		C205.384,748.162,355.492,898.271,540,898.27c184.508,0.001,334.616-150.107,334.616-334.616c0,0,0,0,0-0.001
		C874.615,748.162,724.508,898.27,540,898.27z"/>
	<path fill="none" d="M948.789,448.366c-0.956-3.391-1.955-6.77-2.997-10.139c-4.168-13.474-9.024-26.771-14.563-39.865
		c-21.389-50.568-51.999-95.974-90.98-134.956c-38.981-38.981-84.387-69.592-134.955-90.981
		c-25.809-10.917-52.405-19.176-79.601-24.751c-14.486-32.94-47.401-55.944-85.693-55.944s-71.207,23.004-85.693,55.944
		c-27.195,5.576-53.792,13.835-79.601,24.751c-50.568,21.389-95.974,52-134.955,90.981c-38.981,38.982-69.591,84.387-90.98,134.956
		c-5.539,13.094-10.395,26.391-14.563,39.865c-1.042,3.369-2.041,6.749-2.997,10.139c-0.478,1.695-0.945,3.393-1.402,5.094
		c-9.587,35.712-14.425,72.589-14.425,110.193c0,57.303,11.233,112.916,33.387,165.293c20.052,47.408,48.208,90.278,83.77,127.573
		c2.371,2.486,4.774,4.947,7.21,7.384c36.545,36.544,78.737,65.732,125.534,86.862c3.12,1.408,6.26,2.781,9.421,4.118
		c4.911,2.077,9.849,4.058,14.815,5.942c48.005,18.22,98.547,27.444,150.479,27.444s102.474-9.225,150.479-27.444
		c4.966-1.885,9.905-3.865,14.815-5.942c3.161-1.337,6.301-2.71,9.421-4.118c46.797-21.13,88.989-50.318,125.534-86.862
		c2.437-2.437,4.84-4.897,7.21-7.384c35.561-37.295,63.718-80.165,83.77-127.573c22.154-52.377,33.387-107.99,33.387-165.293
		c0-37.604-4.837-74.48-14.425-110.193C949.734,451.759,949.267,450.061,948.789,448.366z M874.616,563.653
		c0,184.509-150.108,334.617-334.616,334.617S205.384,748.162,205.384,563.653c0,0,0,0,0-0.001l0,0
		c0-106.097,49.637-200.812,126.908-262.155c7.188-5.706,14.615-11.124,22.264-16.235c5.736-3.833,11.597-7.494,17.575-10.975
		c27.897-16.245,58.344-28.572,90.581-36.224c16.854,24.642,45.181,40.816,77.289,40.816c32.108,0,60.435-16.174,77.289-40.816
		c32.237,7.651,62.683,19.979,90.581,36.224c5.978,3.481,11.839,7.142,17.575,10.975c7.648,5.111,15.076,10.529,22.264,16.235
		C824.979,362.84,874.616,457.556,874.616,563.653L874.616,563.653C874.616,563.653,874.616,563.653,874.616,563.653z"/>
</g>
</svg>
