<?xml version="1.0" encoding="utf-8"?>
<!-- Generator: Adobe Illustrator 16.0.3, SVG Export Plug-In . SVG Version: 6.00 Build 0)  -->
<!DOCTYPE svg PUBLIC "-//W3C//DTD SVG 1.1//EN" "http://www.w3.org/Graphics/SVG/1.1/DTD/svg11.dtd">
<svg version="1.1" id="Capa_1" xmlns="http://www.w3.org/2000/svg" xmlns:xlink="http://www.w3.org/1999/xlink" x="0px" y="0px"
	 width="1080px" height="1080px" viewBox="0 0 1080 1080" enable-background="new 0 0 1080 1080" xml:space="preserve">
<g>
	<linearGradient id="SVGID_1_" gradientUnits="userSpaceOnUse" x1="372.8906" y1="540.0005" x2="707.1084" y2="540.0005">
		<stop  offset="0" style="stop-color:#110B79"/>
		<stop  offset="0.2167" style="stop-color:#00A0C6"/>
		<stop  offset="0.2296" style="stop-color:#0F9FBB"/>
		<stop  offset="0.2553" style="stop-color:#1A9DA7"/>
		<stop  offset="0.2815" style="stop-color:#269B97"/>
		<stop  offset="0.3081" style="stop-color:#2E9A8A"/>
		<stop  offset="0.3355" style="stop-color:#339A83"/>
		<stop  offset="0.3646" style="stop-color:#349980"/>
		<stop  offset="0.4778" style="stop-color:#349484"/>
		<stop  offset="0.6685" style="stop-color:#2E58A6"/>
		<stop  offset="1" style="stop-color:#111183"/>
	</linearGradient>
	<path fill="url(#SVGID_1_)" d="M707.108,540.002c0,92.288-74.818,167.107-167.108,167.107
		c-92.291,0-167.109-74.819-167.109-167.107c0-92.291,74.818-167.11,167.109-167.11C632.29,372.892,707.108,447.711,707.108,540.002
		z"/>
	<g>
		<path fill="none" d="M540,217.508c-39.654,0-74.639-19.976-95.455-50.409c-182.004,43.199-317.808,207.087-317.808,402.113
			c0,227.876,185.389,413.265,413.263,413.265s413.263-185.389,413.263-413.265c0-195.026-135.804-358.914-317.808-402.113
			C614.641,197.532,579.654,217.508,540,217.508z"/>
		<linearGradient id="SVGID_2_" gradientUnits="userSpaceOnUse" x1="15.584" y1="540" x2="1064.416" y2="540">
			<stop  offset="0" style="stop-color:#110B79"/>
			<stop  offset="0.2167" style="stop-color:#00A0C6"/>
			<stop  offset="0.2296" style="stop-color:#0F9FBB"/>
			<stop  offset="0.2553" style="stop-color:#1A9DA7"/>
			<stop  offset="0.2815" style="stop-color:#269B97"/>
			<stop  offset="0.3081" style="stop-color:#2E9A8A"/>
			<stop  offset="0.3355" style="stop-color:#339A83"/>
			<stop  offset="0.3646" style="stop-color:#349980"/>
			<stop  offset="0.4778" style="stop-color:#349484"/>
			<stop  offset="0.6685" style="stop-color:#2E58A6"/>
			<stop  offset="1" style="stop-color:#111183"/>
		</linearGradient>
		<path fill="url(#SVGID_2_)" d="M1023.182,365.072c-26.416-62.454-64.219-118.531-112.364-166.676
			c-48.142-48.144-104.221-85.949-166.675-112.365c-31.874-13.481-64.721-23.683-98.309-30.568
			C627.943,14.78,587.293-13.63,540-13.63s-87.943,28.41-105.835,69.093c-33.587,6.886-66.434,17.087-98.31,30.568
			c-62.452,26.416-118.531,64.222-166.675,112.365c-48.144,48.145-85.947,104.222-112.362,166.676
			c-27.361,64.688-41.234,133.371-41.234,204.14c0,70.771,13.873,139.455,41.234,204.143
			c26.415,62.454,64.219,118.532,112.362,166.677c48.144,48.143,104.223,85.949,166.675,112.365
			c64.689,27.361,133.373,41.233,204.145,41.233s139.455-13.872,204.143-41.233c62.454-26.416,118.533-64.223,166.675-112.365
			c48.146-48.145,85.948-104.223,112.364-166.677c27.361-64.688,41.234-133.372,41.234-204.143
			C1064.416,498.443,1050.543,429.76,1023.182,365.072z M540,982.477c-227.874,0-413.263-185.389-413.263-413.265
			c0-195.026,135.804-358.914,317.808-402.113c20.816,30.434,55.801,50.409,95.455,50.409s74.641-19.976,95.455-50.409
			c182.004,43.199,317.808,207.087,317.808,402.113C953.263,797.088,767.874,982.477,540,982.477z"/>
	</g>
</g>
</svg>
